/vscmnt/brussel_pixiu_data/_data_brussel/112/vsc11236/PredSimResults/SUBJ04mtu3D/weighted-LRposFixed/expIG/worker_01.mot
version=1
nRows=10
nColumns=50
inDegrees=yes
endheader
                time	         pelvis_tilt	         pelvis_list	     pelvis_rotation	           pelvis_tx	           pelvis_ty	           pelvis_tz	       hip_flexion_r	     hip_adduction_r	      hip_rotation_r	        knee_angle_r	       ankle_angle_r	         mtp_angle_r	       hip_flexion_l	     hip_adduction_l	      hip_rotation_l	        knee_angle_l	       ankle_angle_l	         mtp_angle_l	    lumbar_extension	      lumbar_bending	     lumbar_rotation	 ercspn_r/activation	 intobl_r/activation	 extobl_r/activation	    abd_r/activation	    add_r/activation	hamstrings_r/activation	bifemsh_r/activation	glut_max_r/activation	iliopsoas_r/activation	rect_fem_r/activation	  vasti_r/activation	gastroc_r/activation	 soleus_r/activation	tib_ant_r/activation	 ercspn_l/activation	 intobl_l/activation	 extobl_l/activation	    abd_l/activation	    add_l/activation	hamstrings_l/activation	bifemsh_l/activation	glut_max_l/activation	iliopsoas_l/activation	rect_fem_l/activation	  vasti_l/activation	gastroc_l/activation	 soleus_l/activation	tib_ant_l/activation	
          1.37059765	         -5.26108612	         -4.77495136	         12.20598510	          1.23353788	          0.88326839	         -0.01991922	         24.16762582	          0.52944160	         -4.56985873	          2.17718263	          5.10707654	          0.22508827	         -8.97215135	         -4.49967048	         14.62620643	         -8.99187333	         12.11185619	         24.12616521	         -3.13842809	          1.89204615	         -1.16597597	          0.08327771	          0.16119619	          0.01853837	          0.02215534	          0.11743496	          0.01827223	          0.01000252	          0.01000078	          0.05343357	          0.01228674	          0.02541357	          0.01000029	          0.01000027	          0.26103661	          0.04302260	          0.01000018	          0.01000034	          0.07825685	          0.01000216	          0.01656540	          0.12480580	          0.06370002	          0.30249405	          0.01000149	          0.01000032	          0.28680163	          0.27171590	          0.01231761	
          1.38430363	         -5.37408399	         -4.65519699	         12.05234688	          1.24853825	          0.88147535	         -0.01884451	         23.73600278	          0.79793460	         -3.33758794	          1.53530301	          4.78017749	          0.21036058	         -9.18020599	         -4.34647119	         13.78620342	        -10.34525486	         11.82180668	         25.79992765	         -2.85156331	          2.17341774	         -1.41956964	          0.06947818	          0.17286538	          0.01509112	          0.01803559	          0.10515831	          0.02351546	          0.01009237	          0.01222091	          0.04349740	          0.01000347	          0.02068801	          0.01558421	          0.01456116	          0.28379860	          0.06300642	          0.01000017	          0.01000040	          0.06370465	          0.02444344	          0.01374160	          0.10159792	          0.05185583	          0.26940797	          0.01000254	          0.01000048	          0.26266576	          0.26328000	          0.01002712	
          1.39800960	         -5.47116223	         -4.53617490	         11.82464552	          1.26383615	          0.87992907	         -0.01767116	         23.16523977	          1.07558610	         -2.14870804	          1.08917139	          4.27992198	          0.20789917	         -9.30620326	         -4.17406084	         12.90544656	        -11.91220713	         11.38629175	         27.50495988	         -2.55587558	          2.48038605	         -1.66528481	          0.06903687	          0.16609540	          0.01228492	          0.03973384	          0.08560428	          0.02820899	          0.05327297	          0.02410473	          0.03540889	          0.01000070	          0.01684119	          0.01268636	          0.01185351	          0.31632892	          0.08826708	          0.01000014	          0.01000041	          0.05185849	          0.03140333	          0.01150513	          0.08270563	          0.04221315	          0.23129047	          0.01000924	          0.01000119	          0.23246656	          0.24634267	          0.01000006	
          1.41171558	         -5.55272687	         -4.41658522	         11.51817291	          1.27925361	          0.87883052	         -0.01639923	         22.51319238	          1.37266152	         -1.03549999	          0.76854487	          3.76060856	          0.19064751	         -9.29887796	         -3.97268642	         11.97117134	        -13.74675561	         10.74635266	         29.21677512	         -2.26807169	          2.81221680	         -1.90145829	          0.06809878	          0.14086711	          0.01000064	          0.06227539	          0.06968799	          0.03058470	          0.04336813	          0.03420939	          0.02882448	          0.01000139	          0.01587729	          0.01032797	          0.01000153	          0.33986244	          0.10996865	          0.01000014	          0.01000040	          0.04221517	          0.03277716	          0.01116112	          0.06732651	          0.03436348	          0.19639048	          0.01001204	          0.01000210	          0.18923844	          0.22275479	          0.01000008	
          1.42542156	         -5.61883631	         -4.29529070	         11.13597663	          1.29466999	          0.87830545	         -0.01504835	         21.81145153	          1.68288755	         -0.00355841	          0.48954526	          3.35073175	          0.17729956	         -9.13510665	         -3.74167113	         10.96495098	        -15.85751130	          9.87429314	         30.85064758	         -1.99584043	          3.16544257	         -2.12473759	          0.06258497	          0.11467290	          0.01000028	          0.08248165	          0.05912449	          0.03630172	          0.03530554	          0.03441723	          0.02346447	          0.01000095	          0.01570976	          0.01000098	          0.01000074	          0.35699165	          0.12319600	          0.01000014	          0.01000044	          0.03436507	          0.03620949	          0.01521611	          0.05480740	          0.02797346	          0.17482251	          0.01000207	          0.01000082	          0.15404868	          0.18133313	          0.01000008	
          1.43912753	         -5.66970146	         -4.16642353	         10.68419037	          1.30998323	          0.87837353	         -0.01363778	         21.07736022	          1.99220607	          0.94776619	          0.22588817	          3.06365769	          0.16599906	         -8.79834510	         -3.47952224	          9.86923147	        -18.25272071	          8.80595012	         32.24053725	         -1.74683316	          3.52975780	         -2.33164582	          0.05552040	          0.09334925	          0.01000030	          0.10353377	          0.06373345	          0.04009421	          0.02874276	          0.02802063	          0.01910118	          0.01000078	          0.01538965	          0.01000118	          0.01000076	          0.36131904	          0.13379862	          0.01000017	          0.01000052	          0.02797473	          0.04666779	          0.02054016	          0.04461695	          0.02277169	          0.15848521	          0.01000081	          0.01000036	          0.12540261	          0.14761342	          0.01000011	
          1.45283351	         -5.70566700	         -4.02050460	         10.16936079	          1.32510379	          0.87900633	         -0.01218677	         20.31772513	          2.28253820	          1.82001754	         -0.02851278	          2.90611391	          0.15715250	         -8.27404992	         -3.18585044	          8.66355148	        -20.93659475	          7.60150924	         33.17557468	         -1.52915345	          3.89124197	         -2.52048607	          0.04797058	          0.07599078	          0.01000031	          0.11540590	          0.05190101	          0.04283495	          0.02340116	          0.02281227	          0.01554927	          0.01000063	          0.01604297	          0.01000196	          0.01000131	          0.35513814	          0.13774792	          0.01000020	          0.01000064	          0.02277271	          0.05516207	          0.02526227	          0.03632743	          0.01853720	          0.14249172	          0.01000045	          0.01000019	          0.10208340	          0.12016403	          0.01000016	
          1.46653948	         -5.72748925	         -3.84311773	          9.59721496	          1.33996258	          0.88017982	         -0.01071374	         19.52984946	          2.53233886	          2.61489068	         -0.25852217	          2.85620303	          0.15198715	         -7.55211389	         -2.86274316	          7.33612628	        -23.90602681	          6.31440752	         33.45268020	         -1.35037934	          4.23142737	         -2.68987591	          0.04403894	          0.06186023	          0.01000032	          0.11767051	          0.04225038	          0.04567341	          0.01905469	          0.01956956	          0.01265787	          0.01000054	          0.01483886	          0.01000346	          0.01000228	          0.34292035	          0.13658757	          0.01000022	          0.01000083	          0.01853802	          0.06395567	          0.02617366	          0.03327454	          0.01509014	          0.12786875	          0.01000037	          0.01000015	          0.08310052	          0.09781897	          0.01000014	
          1.48024546	         -5.73527345	         -3.61965383	          8.97224587	          1.35453978	          0.88183096	         -0.00923174	         18.70989539	          2.72268433	          3.34327668	         -0.44947995	          2.87234961	          0.15059000	         -6.63270976	         -2.51664251	          5.90547153	        -27.13903667	          4.90347997	         33.07342321	         -1.21343380	          4.53197315	         -2.83758731	          0.03839825	          0.05035726	          0.01000033	          0.11131867	          0.03439392	          0.04842165	          0.01552056	          0.01764557	          0.01030417	          0.01000050	          0.01405823	          0.01000549	          0.01000376	          0.32921372	          0.13279442	          0.01000021	          0.01000092	          0.01509079	          0.07478229	          0.02489937	          0.03348422	          0.01228409	          0.11637014	          0.01000034	          0.01000012	          0.06764759	          0.07962908	          0.01000011	
          1.49395144	         -5.72853066	         -3.33873268	          8.29790577	          1.36884220	          0.88384927	         -0.00774525	         17.86061504	          2.83904554	          4.01717464	         -0.60284339	          2.92554669	          0.15213138	         -5.52810915	         -2.15608564	          4.40699471	        -30.57612044	          3.26515867	         32.16306750	         -1.11868479	          4.77755613	         -2.96171063	          0.03125836	          0.04099322	          0.01000034	          0.10155460	          0.02799831	          0.05137755	          0.01265606	          0.01712163	          0.01000028	          0.01000047	          0.01397915	          0.01000265	          0.01000185	          0.31701240	          0.12675226	          0.01000019	          0.01000096	          0.01228460	          0.08964931	          0.02198027	          0.04420039	          0.01000007	          0.10848579	          0.01000030	          0.01000009	          0.05506821	          0.06482169	          0.01000022	
